<svg xmlns="http://www.w3.org/2000/svg" viewBox="0 0 40 40" class=" "><g fill="none" fill-rule="evenodd"><path fill="#15C47E" d="M20 40C8.954 40 0 31.046 0 20S8.954 0 20 0s20 8.954 20 20-8.954 20-20 20"></path><path fill="#76E4B8" d="M27.5 14.5h-18a1 1 0 00-1 1v12a1 1 0 001 1h18a1 1 0 001-1v-12a1 1 0 00-1-1"></path><path fill="#FFF" d="M30.5 11.5h-18a1 1 0 00-1 1v12a1 1 0 001 1h18a1 1 0 001-1v-12a1 1 0 00-1-1"></path><path fill="#15C47E" d="M27.336 19.4h-1.937l-.696 2.53a1.089 1.089 0 01-1.06.808 1.09 1.09 0 01-1.062-.81L21.5 18.003l-1.081 3.928a1.09 1.09 0 01-1.062.808c-.5 0-.927-.325-1.06-.81l-.696-2.527h-1.937a.9.9 0 010-1.801h1.442l-.606-2.198a.9.9 0 011.736-.48l1.122 4.079 1.082-3.93a1.088 1.088 0 011.06-.808c.502 0 .928.326 1.06.81L23.643 19l1.122-4.078a.9.9 0 011.736.479l-.605 2.198h1.44a.9.9 0 010 1.8"></path></g></svg>