<svg xmlns="http://www.w3.org/2000/svg" viewBox="0 0 24 24" class="line-icon"><path fill="#B0B8C1" d="M13.864 16.506a5.1 5.1 0 01-1.039.287v.707a.824.824 0 01-1.65 0v-.726c-1.361-.266-2.388-1.091-2.863-1.697a.824.824 0 011.297-1.021c.068.084 1.475 1.783 3.644.917.518-.207.846-.618.796-.999-.055-.421-.651-.976-2.148-1.156-3.063-.367-3.519-2.067-3.587-2.579-.149-1.148.582-2.252 1.821-2.746a5.198 5.198 0 011.04-.289V6.5a.826.826 0 011.65 0v.716c1.177.232 2.035.883 2.451 1.27a.825.825 0 01-1.124 1.208c-.569-.529-1.769-1.321-3.405-.668-.519.207-.846.618-.796 1 .055.42.65.975 2.147 1.154 3.064.368 3.52 2.068 3.587 2.58.15 1.148-.582 2.251-1.821 2.746M12 1C5.925 1 1 5.924 1 12c0 6.075 4.925 11 11 11s11-4.925 11-11c0-6.076-4.925-11-11-11" fill-rule="evenodd"></path></svg>