<svg viewBox="0 0 40 40" xmlns="http://www.w3.org/2000/svg" class=" "><g fill="none" fill-rule="evenodd"><path d="M20 40C9 40 0 31 0 20S9 0 20 0s20 9 20 20-9 20-20 20" fill="#F04452" opacity=".803"></path><path d="M11.5 11v18a1 1 0 001 1h15a1 1 0 001-1V11a1 1 0 00-1-1h-15a1 1 0 00-1 1" fill="#FFF"></path><path stroke="#C4CAD0" stroke-width="1.5" stroke-linecap="round" stroke-linejoin="round" d="M24.377 25.5H15.5M24.377 22.5H15.5"></path><path stroke="#FC2D4C" stroke-width="1.5" stroke-linecap="round" stroke-linejoin="round" d="M23.523 14.89l-3.479 3.477-1.79-1.821L15.5 19.3"></path><path stroke="#FC2D4C" stroke-width="1.5" stroke-linecap="round" stroke-linejoin="round" d="M24.55 16.476v-2.593h-2.593"></path></g></svg>