<svg xmlns="http://www.w3.org/2000/svg" viewBox="0 0 24 24" class="line-icon"><path fill="#B0B8C1" d="M22.432 14.877a1.1 1.1 0 00-1.556 0l-2.467 2.467V4a1.1 1.1 0 10-2.2 0v13.344l-2.467-2.467a1.1 1.1 0 10-1.556 1.556l4.345 4.344a1.1 1.1 0 001.2.238c.133-.056.255-.136.356-.238l4.345-4.344a1.1 1.1 0 000-1.556m-10.618-7.31L7.469 3.222a1.097 1.097 0 00-1.555 0L1.568 7.567a1.101 1.101 0 001.556 1.556L5.59 6.655V20a1.1 1.1 0 002.2 0V6.656l2.467 2.467a1.097 1.097 0 001.556 0 1.1 1.1 0 000-1.556" fill-rule="evenodd"></path></svg>