<svg viewBox="0 0 24 24" xmlns="http://www.w3.org/2000/svg"><path d="m21.2 3.72h-18.4c-1.012 0-1.84.828-1.84 1.84v12.88c0 1.012.828 1.84 1.84 1.84h18.4c1.012 0 1.84-.828 1.84-1.84v-12.88c0-1.012-.828-1.84-1.84-1.84z" fill="#fafafc"></path><path d="m23.04 16.6v-1.84h-22.08v1.84z" fill="#f44336"></path><path d="m.96 18.44c0 1.012.828 1.84 1.84 1.84h18.4c1.012 0 1.84-.828 1.84-1.84z" fill="#f44336"></path><path d="m.96 12.92h22.08v-1.84h-22.08z" fill="#f44336"></path><path d="m.96 9.24h22.08v-1.84h-22.08z" fill="#f44336"></path><path d="m.96 5.56h22.08c0-1.012-.828-1.84-1.84-1.84h-18.4c-1.012 0-1.84.828-1.84 1.84z" fill="#f44336"></path><path d="m.96 5.56v7.36h11.96v-9.2h-10.12c-1.012 0-1.84.828-1.84 1.84z" fill="#2272eb"></path><g fill="#e3e7ea"><path d="m3.012 5.425.105.329h.34l-.275.203.106.328-.276-.203-.275.203.105-.329-.275-.203h.34z"></path><path d="m5.016 5.425.105.329h.34l-.274.203.105.329-.276-.203-.275.202.105-.329-.275-.203h.339z"></path><path d="m7.022 5.425.105.329h.339l-.274.203.105.329-.275-.203-.276.203.105-.329-.275-.204h.339z"></path><path d="m9.027 5.425.105.329h.34l-.275.203.105.329-.276-.203-.275.202.105-.329-.274-.203h.339z"></path><path d="m11.031 5.425.105.329h.34l-.276.203.105.329-.275-.203-.276.203.106-.329-.276-.203h.34z"></path><path d="m3.012 7.051.105.329h.34l-.275.203.106.329-.276-.203-.275.203.105-.329-.275-.203h.34z"></path><path d="m5.016 7.051.105.329h.34l-.274.203.105.329-.276-.203-.275.203.105-.329-.275-.203h.339z"></path><path d="m7.022 7.051.105.329h.339l-.274.203.105.329-.275-.203-.276.203.105-.329-.275-.203h.339z"></path><path d="m9.027 7.051.105.329h.34l-.275.203.105.329-.276-.203-.275.203.105-.329-.274-.203h.339z"></path><path d="m11.031 7.051.105.329h.34l-.276.203.105.329-.275-.203-.276.203.106-.329-.276-.203h.34z"></path><path d="m3.012 8.679.105.329h.34l-.275.203.106.329-.276-.203-.275.203.105-.329-.275-.203h.34z"></path><path d="m5.016 8.679.105.329h.34l-.274.203.105.329-.276-.203-.275.203.105-.329-.275-.203h.339z"></path><path d="m7.022 8.679.105.329h.339l-.274.203.105.329-.275-.203-.276.203.105-.329-.275-.203h.339z"></path><path d="m9.027 8.679.105.329h.34l-.275.203.105.329-.276-.203-.275.203.106-.329-.275-.203h.339z"></path><path d="m11.031 8.679.105.329h.34l-.276.203.105.329-.275-.203-.276.203.106-.329-.276-.203h.34z"></path><path d="m3.012 10.305.105.329h.34l-.275.204.105.328-.276-.203-.275.203.105-.328-.274-.205h.34z"></path><path d="m5.016 10.305.105.329h.34l-.275.204.105.328-.275-.203-.275.202.105-.328-.275-.204h.339z"></path><path d="m7.022 10.305.105.329h.339l-.275.204.105.328-.275-.203-.276.203.105-.328-.274-.205h.339z"></path><path d="m9.027 10.305.105.329h.34l-.275.204.105.328-.276-.203-.275.203.105-.328-.274-.205h.339z"></path><path d="m11.031 10.305.105.329h.34l-.276.204.105.328-.275-.203-.276.203.106-.328-.276-.204h.34z"></path><path d="m2.016 4.611.105.329h.339l-.275.203.105.329-.274-.203-.276.203.105-.329-.275-.202h.339z"></path><path d="m4.02 4.611.105.329h.34l-.276.203.106.329-.276-.203-.274.204.105-.329-.276-.203h.34z"></path><path d="m6.026 4.611.105.33h.34l-.276.203.105.329-.274-.204-.276.203.106-.329-.276-.203h.34z"></path><path d="m8.03 4.611.106.33h.339l-.275.202.105.329-.276-.203-.274.204.105-.33-.275-.202h.34z"></path><path d="m10.035 4.611.105.329h.34l-.274.203.105.329-.276-.203-.275.204.105-.329-.275-.203h.34z"></path><path d="m12.04 4.611.106.329h.339l-.275.203.105.329-.276-.203-.275.203.105-.329-.275-.203h.34z"></path><path d="m2.016 6.238.105.329h.339l-.275.203.105.329-.274-.202-.276.203.105-.329-.275-.204h.339z"></path><path d="m4.02 6.238.105.329h.34l-.276.203.106.329-.276-.203-.274.203.105-.329-.276-.203h.34z"></path><path d="m6.026 6.238.105.329h.34l-.276.203.105.329-.274-.202-.276.203.106-.329-.276-.203h.34z"></path><path d="m8.03 6.238.106.329h.339l-.275.203.105.329-.276-.203-.274.203.105-.329-.275-.202h.34z"></path><path d="m10.035 6.238.105.329h.34l-.274.203.105.329-.276-.202-.275.202.105-.329-.275-.203h.34z"></path><path d="m12.04 6.238.106.329h.339l-.275.203.105.329-.276-.203-.275.203.105-.329-.275-.203h.34z"></path><path d="m2.016 7.866.105.329h.339l-.275.203.105.329-.274-.204-.276.203.105-.329-.275-.202h.339z"></path><path d="m4.02 7.866.105.329h.34l-.276.203.106.329-.276-.203-.274.203.105-.329-.276-.203h.34z"></path><path d="m6.026 7.866.105.329h.34l-.276.203.105.329-.274-.204-.276.203.106-.329-.276-.203h.34z"></path><path d="m8.03 7.866.106.329h.339l-.275.203.105.329-.276-.203-.274.203.105-.329-.275-.203h.34z"></path><path d="m10.035 7.866.105.329h.34l-.274.203.105.329-.276-.203-.275.203.105-.329-.275-.203h.34z"></path><path d="m12.04 7.866.106.329h.339l-.275.203.105.329-.276-.203-.275.203.105-.329-.275-.203h.34z"></path><path d="m2.016 9.492.105.329h.339l-.275.204.105.328-.274-.203-.276.203.105-.328-.275-.205h.339z"></path><path d="m4.02 9.492.105.329h.34l-.276.204.106.328-.276-.203-.275.203.107-.328-.276-.204h.34z"></path><path d="m6.026 9.492.105.328h.34l-.276.204.105.328-.274-.202-.276.203.106-.328-.276-.204h.34z"></path><path d="m8.03 9.492.106.328h.339l-.275.205.105.328-.276-.203-.275.203.106-.328-.275-.205h.34z"></path><path d="m10.035 9.492.105.329h.34l-.274.204.105.328-.276-.203-.275.203.105-.328-.275-.205h.34z"></path><path d="m12.04 9.492.106.329h.339l-.274.204.105.328-.276-.203-.275.203.105-.328-.275-.204h.34z"></path><path d="m2.016 11.119.105.329h.339l-.275.204.105.329-.275-.203-.276.203.105-.329-.275-.204h.339z"></path><path d="m4.02 11.119.105.329h.34l-.276.204.106.329-.276-.203-.275.203.105-.329-.276-.204h.34z"></path><path d="m6.026 11.119.105.329h.34l-.276.204.105.329-.275-.203-.276.203.106-.329-.276-.204h.34z"></path><path d="m8.03 11.119.106.329h.339l-.275.204.105.329-.276-.203-.275.203.106-.329-.275-.204h.34z"></path><path d="m10.035 11.119.105.329h.34l-.275.204.105.329-.275-.203-.275.203.105-.329-.275-.204h.34z"></path><path d="m12.04 11.119.106.329h.339l-.275.204.105.329-.276-.203-.275.203.105-.329-.275-.204h.34z"></path></g></svg>